<svg xmlns="http://www.w3.org/2000/svg" viewBox="0 0 188.2 187.62"><defs><style>.cls-1{fill:#faa819;}.cls-1,.cls-2{fill-rule:evenodd;}.cls-2{fill:#fff;}</style></defs><title>buen-camino</title><g id="Layer_2" data-name="Layer 2"><g id="Layer_1-2" data-name="Layer 1"><path class="cls-1" d="M94.1,187.62A93.81,93.81,0,1,0,0,93.81C0,145.53,42.19,187.64,94.1,187.62Z"/><path class="cls-1" d="M94.13,171a77.37,77.37,0,0,0,77.45-77.27c0-42.43-34.67-77-77.37-77.12C51,16.49,16.61,51.69,16.64,94.39,16.67,135.57,50.75,170.94,94.13,171Zm0,16.63C42.19,187.64,0,145.53,0,93.81a94.1,94.1,0,1,1,94.1,93.81Z"/><path class="cls-2" d="M122.55,85.9a11.22,11.22,0,0,0,11.31-11.1,11.29,11.29,0,1,0-22.57-.18A11.22,11.22,0,0,0,122.55,85.9Zm-65-11.81A11.29,11.29,0,1,0,69,62.82,11.25,11.25,0,0,0,57.52,74.09Zm-12,39c.08.26.1.37.14.48,4.5,12.4,12.95,21.13,24.86,26.54,9.73,4.42,20,5.66,30.57,4.6s20.14-4.31,28.62-10.61c10.22-7.59,17.06-17.28,18.17-30.38.33-3.92-.24-4.73-4.06-5.31-2.62-.4-4.6.43-5.83,2.79A22.74,22.74,0,0,0,136.3,106a32.64,32.64,0,0,1-7.38,14.07c-4.86,5.36-11,8.69-17.73,11-8,2.78-16.21,3.9-24.63,2.08a45.37,45.37,0,0,1-21.21-11.34c-3.74-3.42-7-7.3-10.58-10.94-.29-.31-.88-.66-1.2-.56C50.92,111.17,48.29,112.12,45.57,113.07ZM94.13,171c-43.38-.05-77.46-35.42-77.49-76.6,0-42.7,34.35-77.9,77.57-77.79,42.7.11,77.39,34.69,77.37,77.12A77.37,77.37,0,0,1,94.13,171Z"/></g></g></svg>