<svg xmlns="http://www.w3.org/2000/svg" viewBox="0 0 184.79 184.48"><defs><style>.cls-1{fill:#00996b;}.cls-1,.cls-2{fill-rule:evenodd;}.cls-2{fill:#fff;}</style></defs><title>comprometido</title><g id="Layer_2" data-name="Layer 2"><g id="Layer_1-2" data-name="Layer 1"><path class="cls-1" d="M103.3,0C67.44-.21,44.06,9.76,27.05,26.92c-17.89,18-27,40-27,65.31,0,24.66,8.65,46.17,25.74,63.92s38.31,27.4,63,28.26c27.34,1,51-8.36,70.05-28,18.86-19.46,27.48-43.08,25.8-70.12C183,60.88,172.42,39.62,153.35,22.82,136,7.54,115.51.17,103.3,0Z"/><path class="cls-1" d="M92.39,16.5a75.7,75.7,0,0,0-75.87,76c-.07,41.77,33.94,75,74.93,75.43A75.69,75.69,0,0,0,168.3,91.72C168.13,50.1,134,16.41,92.39,16.5ZM103.3,0C115.51.17,136,7.54,153.35,22.82c19.07,16.8,29.65,38.06,31.24,63.43,1.68,27-6.94,50.66-25.8,70.12-19.07,19.68-42.71,29-70,28-24.69-.86-45.88-10.47-63-28.26S0,116.89,0,92.23C.05,66.87,9.16,45,27.05,26.92,44.06,9.76,67.44-.21,103.3,0Z"/><path class="cls-2" d="M120.13,62.58a11,11,0,1,0,0,22c6.27,0,10.68-4.24,11.06-10.51C131.56,67.38,125.69,62.2,120.13,62.58ZM67.81,83.94C74.7,83.92,79,79,79,73c-.09-6.31-4.52-11-11.06-11-6.23,0-11.13,4.54-11.09,11.41A10.59,10.59,0,0,0,67.81,83.94ZM42.3,106.76c.4,1.49.8,2.9,1.15,4.32,3,12.29,10.16,21.54,20.87,28,10.28,6.22,21.56,8.55,33.52,8A55.43,55.43,0,0,0,115,143.68c9.25-3.48,17-9,22.66-17.21,3-4.32,4.65-9.23,6.22-14.19.57-1.82,1.19-3.62,1.82-5.52ZM92.39,16.5c41.62-.09,75.74,33.6,75.91,75.22a75.69,75.69,0,0,1-76.85,76.19c-41-.46-75-33.66-74.93-75.43A75.7,75.7,0,0,1,92.39,16.5Z"/><path class="cls-1" d="M58.8,117.41l-.2.25c2.95,2.93,5.82,6,8.87,8.77a37.13,37.13,0,0,0,11.23,7,39.35,39.35,0,0,0,13.63,2.84A52.11,52.11,0,0,0,104.91,135a42.29,42.29,0,0,0,11.16-3.85,30.77,30.77,0,0,0,10.33-8.32c1-1.34,2-2.76,3.13-4.42ZM42.3,106.76H145.7c-.63,1.9-1.25,3.7-1.82,5.52-1.57,5-3.24,9.87-6.22,14.19C132,134.69,124.25,140.2,115,143.68a55.43,55.43,0,0,1-17.16,3.43c-12,.54-23.24-1.79-33.52-8-10.71-6.48-17.88-15.73-20.87-28C43.1,109.66,42.7,108.25,42.3,106.76Z"/><path class="cls-2" d="M58.8,117.41l70.73,1c-1.17,1.66-2.1,3.08-3.13,4.42a30.77,30.77,0,0,1-10.33,8.32A42.29,42.29,0,0,1,104.91,135a52.11,52.11,0,0,1-12.58,1.23,39.35,39.35,0,0,1-13.63-2.84,37.13,37.13,0,0,1-11.23-7c-3-2.82-5.92-5.84-8.87-8.77Z"/></g></g></svg>