<svg xmlns="http://www.w3.org/2000/svg" viewBox="0 0 188.12 187.62"><defs><style>.cls-1{fill:#ffd543;}.cls-1,.cls-2{fill-rule:evenodd;}.cls-2{fill:#fff;}</style></defs><title>falta-concrecion</title><g id="Layer_2" data-name="Layer 2"><g id="Layer_1-2" data-name="Layer 1"><path class="cls-1" d="M94,187.62c52,0,94.08-42,94.09-93.73A94.06,94.06,0,0,0,0,93.79C0,145.52,42.19,187.66,94,187.62Z"/><path class="cls-1" d="M94,171c42.47.12,77.29-34.38,77.59-76.58.3-42.63-34.31-77.64-77.18-77.85A77.46,77.46,0,0,0,16.6,94.28C16.61,136.38,51.34,170.9,94,171Zm0,16.61c-51.84,0-94.06-42.1-94-93.83a94.06,94.06,0,0,1,188.12.1C188.11,145.66,146,187.58,94,187.62Z"/><path class="cls-2" d="M133.41,74.83a11.08,11.08,0,1,0-11,11A11,11,0,0,0,133.41,74.83ZM58,74.12A10.86,10.86,0,0,0,68.81,85.33,11,11,0,0,0,80.2,74.63,11.21,11.21,0,0,0,69.39,63.18C63.3,62.91,58.27,67.74,58,74.12Zm78.56,37.72H56.34v15h80.2ZM94,171c-42.66-.11-77.39-34.63-77.4-76.73a77.46,77.46,0,0,1,77.81-77.7c42.87.21,77.48,35.22,77.18,77.85C171.29,136.63,136.47,171.13,94,171Z"/></g></g></svg>