<svg xmlns="http://www.w3.org/2000/svg" viewBox="0 0 187.01 186.79"><defs><style>.cls-1{fill:#ed1b36;}.cls-1,.cls-2{fill-rule:evenodd;}.cls-2{fill:#fff;}</style></defs><title>habla-del-tema-no-alineado</title><g id="Layer_2" data-name="Layer 2"><g id="Layer_1-2" data-name="Layer 1"><path class="cls-1" d="M0,93.52a93.51,93.51,0,0,0,187,3c1.62-54-41.35-94.89-90.16-96.48C42.89-1.71-.15,41.73,0,93.52Z"/><path class="cls-1" d="M170.25,93.41c.14-41.7-33.94-76.52-76.66-76.6a76.72,76.72,0,0,0-76.78,74.9C15.67,134.63,50.38,169.27,92.13,170A76.66,76.66,0,0,0,170.25,93.41ZM0,93.52C-.15,41.73,42.89-1.71,96.81.05,145.62,1.64,188.59,42.49,187,96.53a93.51,93.51,0,0,1-187-3Z"/><path class="cls-2" d="M68.58,85.09a11.18,11.18,0,1,0,.22-22.35A11.23,11.23,0,0,0,57.51,73.46C57.35,80.92,63.68,85.39,68.58,85.09Zm64.17-10.54a11.17,11.17,0,1,0-22.34-.11,11.17,11.17,0,1,0,22.34.11Zm12.48,60.88c-.07-.41-.11-.72-.18-1-3.23-13.31-11.09-23.1-23-29.64C110,98.12,97,96.45,83.49,98.48a50.35,50.35,0,0,0-28.26,13.69c-6,5.78-10.19,12.58-11.35,21-.51,3.66-1.13,2.93,2.49,4.51,3.42,1.49,6,.54,7.84-2.75a27.63,27.63,0,0,0,1.72-3.8,31,31,0,0,1,14.87-16.7,49.14,49.14,0,0,1,16.58-5.12,43.52,43.52,0,0,1,16.75.65c8.59,2.11,15.49,7,21.53,13.24a86.52,86.52,0,0,1,10.21,13.42c.2.31.66.74.92.69C139.59,136.71,142.37,136.07,145.23,135.43Zm25-42A76.66,76.66,0,0,1,92.13,170c-41.75-.69-76.46-35.33-75.32-78.25a76.72,76.72,0,0,1,76.78-74.9C136.31,16.89,170.39,51.71,170.25,93.41Z"/></g></g></svg>