<svg xmlns="http://www.w3.org/2000/svg" viewBox="0 0 185.31 185.01"><defs><style>.cls-1{fill:#b4b6b8;}.cls-1,.cls-2{fill-rule:evenodd;}.cls-2{fill:#fff;}</style></defs><title>no-dice-nada</title><g id="Layer_2" data-name="Layer 2"><g id="Layer_1-2" data-name="Layer 1"><path class="cls-1" d="M93.42,185c23.85-.23,45.33-8.57,63.2-25.53s27.51-38,28.59-62.53c1.24-28.24-8.49-52.48-29.08-71.89C137,7,113.78-1.19,87.51.14A89.07,89.07,0,0,0,26.21,28C7,47.83-1.64,71.89.26,99.43c1.61,23.42,11.15,43.48,28.07,59.7C46.21,176.27,67.77,184.83,93.42,185Z"/><path class="cls-1" d="M168.59,92.35A76,76,0,0,0,95.17,16.83c-22-.69-41,7-56.48,22.64-14.6,14.8-22,32.91-21.91,53.6.22,41.43,33.85,74.65,75.05,75.08A75.88,75.88,0,0,0,168.59,92.35ZM93.42,185c-25.65-.18-47.21-8.74-65.09-25.88C11.41,142.91,1.87,122.85.26,99.43-1.64,71.89,7,47.83,26.21,28A89.07,89.07,0,0,1,87.51.14C113.78-1.19,137,7,156.13,25.06,176.72,44.47,186.45,68.71,185.21,97c-1.08,24.55-10.76,45.58-28.59,62.53S117.27,184.78,93.42,185Z"/><path class="cls-2" d="M120.43,84.92c6.65-.25,11-4.43,11.12-11a11.13,11.13,0,1,0-22.26.12C109.37,80.48,114,84.66,120.43,84.92ZM79.18,73.33a11.12,11.12,0,1,0-22.24.22c.13,6.14,4.34,10.7,11.11,10.81A10.67,10.67,0,0,0,79.18,73.33Zm17,44.16L75.57,98.67l-10.48,12.8c6.62,5.08,13.08,10,19.56,15L66.4,147a5.6,5.6,0,0,1,.64.37c3.09,2.59,6.19,5.17,9.24,7.79.71.61,1.13.26,1.63-.21l8.71-8.23,8.54-8.06,19.33,17.23,10-12.11c.53-.64,0-.88-.45-1.2q-8.22-6.19-16.42-12.42c-.74-.57-1.45-1.18-2.19-1.77,5.84-6.53,11.55-12.94,17.3-19.32.6-.67.73-1.06-.05-1.72-3.38-2.87-6.71-5.8-10-8.71-.6-.53-1-.57-1.55.13-3,3.84-6,7.64-9.06,11.45C100.06,112.58,98.17,115,96.2,117.49Zm72.39-25.14a75.88,75.88,0,0,1-76.76,75.8c-41.2-.43-74.83-33.65-75-75.08-.11-20.69,7.31-38.8,21.91-53.6C54.18,23.79,73.17,16.14,95.17,16.83A76,76,0,0,1,168.59,92.35Z"/></g></g></svg>